<?xml version="1.0" encoding="UTF-8" standalone="no"?>
<!DOCTYPE svg PUBLIC "-//W3C//DTD SVG 1.1//EN" "http://www.w3.org/Graphics/SVG/1.1/DTD/svg11.dtd">
<!-- Created with Vectornator (http://vectornator.io/) -->
<svg height="100%" stroke-miterlimit="10" style="fill-rule:nonzero;clip-rule:evenodd;stroke-linecap:round;stroke-linejoin:round;" version="1.1" viewBox="0 0 264 202" width="100%" xml:space="preserve" xmlns="http://www.w3.org/2000/svg" xmlns:vectornator="http://vectornator.io" xmlns:xlink="http://www.w3.org/1999/xlink">
<defs>
<linearGradient gradientTransform="matrix(1 0 0 1 0 0)" gradientUnits="userSpaceOnUse" id="LinearGradient" x1="132.404" x2="131.791" y1="1.77925" y2="201.295">
<stop offset="0" stop-color="#ffffff"/>
<stop offset="1" stop-color="#ffffff" stop-opacity="0"/>
</linearGradient>
</defs>
<clipPath id="ArtboardFrame">
<rect height="202" width="264" x="0" y="0"/>
</clipPath>
<g clip-path="url(#ArtboardFrame)" id="Ohne-Titel" vectornator:layerName="Ohne Titel">
<path d="M22-2.22045e-14C19.7909-2.30926e-14 18 1.79086 18 4L18 14L12 14C5.37259 14 3.17891e-06 19.3726-2.22045e-14 26L-2.57572e-14 190C-2.39808e-14 196.627 5.37259 202 12 202L252 202C258.627 202 264 196.627 264 190L264 26C264 19.3726 258.627 14 252 14L246 14L246 4C246 1.79086 244.209-2.66454e-14 242-2.57572e-14C239.791-2.4869e-14 238 1.79086 238 4L238 14L26 14L26 4C26 1.79086 24.2091-2.30926e-14 22-2.22045e-14ZM15.625 18L18 18L18 25C18 27.2091 19.7909 29 22 29C24.2091 29 26 27.2091 26 25L26 18L238 18L238 25C238 27.2091 239.791 29 242 29C244.209 29 246 27.2091 246 25L246 18L248.375 18C254.801 18 260 22.755 260 28.625L260 49L4 49L4 28.625C4 22.755 9.19841 18 15.625 18ZM36 65C41.5228 65 46 69.4772 46 75C46 80.5228 41.5228 85 36 85C30.4772 85 26 80.5228 26 75C26 69.4772 30.4772 65 36 65ZM68 65C73.5228 65 78 69.4772 78 75C78 80.5228 73.5228 85 68 85C62.4772 85 58 80.5228 58 75C58 70.8579 60.5046 67.2993 64.0938 65.7812C65.2901 65.2752 66.6193 65 68 65ZM100 65C105.523 65 110 69.4772 110 75C110 80.5228 105.523 85 100 85C94.4772 85 90 80.5228 90 75C90 70.8579 92.5046 67.2993 96.0938 65.7812C97.2901 65.2752 98.6193 65 100 65ZM132 65C137.523 65 142 69.4772 142 75C142 80.5228 137.523 85 132 85C126.477 85 122 80.5228 122 75C122 70.8579 124.505 67.2993 128.094 65.7812C129.29 65.2752 130.619 65 132 65ZM164 65C169.523 65 174 69.4772 174 75C174 80.5228 169.523 85 164 85C158.477 85 154 80.5228 154 75C154 70.8579 156.505 67.2993 160.094 65.7812C161.29 65.2752 162.619 65 164 65ZM196 65C201.523 65 206 69.4772 206 75C206 80.5228 201.523 85 196 85C190.477 85 186 80.5228 186 75C186 70.8579 188.505 67.2993 192.094 65.7812C193.29 65.2752 194.619 65 196 65ZM228 65C233.523 65 238 69.4772 238 75C238 80.5228 233.523 85 228 85C222.477 85 218 80.5228 218 75C218 70.8579 220.505 67.2993 224.094 65.7812C225.29 65.2752 226.619 65 228 65ZM36 97C41.5228 97 46 101.477 46 107C46 112.523 41.5228 117 36 117C30.4772 117 26 112.523 26 107C26 101.477 30.4772 97 36 97ZM68 97C73.5228 97 78 101.477 78 107C78 112.523 73.5228 117 68 117C62.4772 117 58 112.523 58 107C58 102.858 60.5046 99.2993 64.0938 97.7812C65.2901 97.2752 66.6193 97 68 97ZM100 97C105.523 97 110 101.477 110 107C110 112.523 105.523 117 100 117C94.4772 117 90 112.523 90 107C90 102.858 92.5046 99.2993 96.0938 97.7812C97.2901 97.2752 98.6193 97 100 97ZM132 97C137.523 97 142 101.477 142 107C142 112.523 137.523 117 132 117C126.477 117 122 112.523 122 107C122 102.858 124.505 99.2993 128.094 97.7812C129.29 97.2752 130.619 97 132 97ZM164 97C169.523 97 174 101.477 174 107C174 112.523 169.523 117 164 117C158.477 117 154 112.523 154 107C154 102.858 156.505 99.2993 160.094 97.7812C161.29 97.2752 162.619 97 164 97ZM196 97C201.523 97 206 101.477 206 107C206 112.523 201.523 117 196 117C190.477 117 186 112.523 186 107C186 102.858 188.505 99.2993 192.094 97.7812C193.29 97.2752 194.619 97 196 97ZM228 97C233.523 97 238 101.477 238 107C238 112.523 233.523 117 228 117C222.477 117 218 112.523 218 107C218 102.858 220.505 99.2993 224.094 97.7812C225.29 97.2752 226.619 97 228 97ZM36 129C41.5228 129 46 133.477 46 139C46 144.523 41.5228 149 36 149C30.4772 149 26 144.523 26 139C26 133.477 30.4772 129 36 129ZM68 129C73.5228 129 78 133.477 78 139C78 144.523 73.5228 149 68 149C62.4772 149 58 144.523 58 139C58 134.858 60.5046 131.299 64.0938 129.781C65.2901 129.275 66.6193 129 68 129ZM100 129C105.523 129 110 133.477 110 139C110 144.523 105.523 149 100 149C94.4772 149 90 144.523 90 139C90 134.858 92.5046 131.299 96.0938 129.781C97.2901 129.275 98.6193 129 100 129ZM132 129C137.523 129 142 133.477 142 139C142 144.523 137.523 149 132 149C126.477 149 122 144.523 122 139C122 134.858 124.505 131.299 128.094 129.781C129.29 129.275 130.619 129 132 129ZM164 129C169.523 129 174 133.477 174 139C174 144.523 169.523 149 164 149C158.477 149 154 144.523 154 139C154 134.858 156.505 131.299 160.094 129.781C161.29 129.275 162.619 129 164 129ZM196 129C201.523 129 206 133.477 206 139C206 144.523 201.523 149 196 149C190.477 149 186 144.523 186 139C186 134.858 188.505 131.299 192.094 129.781C193.29 129.275 194.619 129 196 129ZM228 129C233.523 129 238 133.477 238 139C238 144.523 233.523 149 228 149C222.477 149 218 144.523 218 139C218 134.858 220.505 131.299 224.094 129.781C225.29 129.275 226.619 129 228 129ZM36 161C41.5228 161 46 165.477 46 171C46 176.523 41.5228 181 36 181C30.4772 181 26 176.523 26 171C26 165.477 30.4772 161 36 161ZM68 161C73.5228 161 78 165.477 78 171C78 176.523 73.5228 181 68 181C62.4772 181 58 176.523 58 171C58 166.858 60.5046 163.299 64.0938 161.781C65.2901 161.275 66.6193 161 68 161ZM100 161C105.523 161 110 165.477 110 171C110 176.523 105.523 181 100 181C94.4772 181 90 176.523 90 171C90 166.858 92.5046 163.299 96.0938 161.781C97.2901 161.275 98.6193 161 100 161ZM132 161C137.523 161 142 165.477 142 171C142 176.523 137.523 181 132 181C126.477 181 122 176.523 122 171C122 166.858 124.505 163.299 128.094 161.781C129.29 161.275 130.619 161 132 161ZM164 161C169.523 161 174 165.477 174 171C174 176.523 169.523 181 164 181C158.477 181 154 176.523 154 171C154 166.858 156.505 163.299 160.094 161.781C161.29 161.275 162.619 161 164 161ZM196 161C201.523 161 206 165.477 206 171C206 176.523 201.523 181 196 181C190.477 181 186 176.523 186 171C186 166.858 188.505 163.299 192.094 161.781C193.29 161.275 194.619 161 196 161ZM228 161C233.523 161 238 165.477 238 171C238 176.523 233.523 181 228 181C222.477 181 218 176.523 218 171C218 166.858 220.505 163.299 224.094 161.781C225.29 161.275 226.619 161 228 161Z" fill="url(#LinearGradient)" fill-rule="nonzero" opacity="1" stroke="none" vectornator:layerName="Kurve 1"/>
</g>
</svg>
