<?xml version="1.0" encoding="UTF-8" standalone="no"?>
<!DOCTYPE svg PUBLIC "-//W3C//DTD SVG 1.1//EN" "http://www.w3.org/Graphics/SVG/1.1/DTD/svg11.dtd">
<!-- Created with Vectornator (http://vectornator.io/) -->
<svg height="100%" stroke-miterlimit="10" style="fill-rule:nonzero;clip-rule:evenodd;stroke-linecap:round;stroke-linejoin:round;" version="1.1" viewBox="0 0 997 808" width="100%" xml:space="preserve" xmlns="http://www.w3.org/2000/svg" xmlns:vectornator="http://vectornator.io" xmlns:xlink="http://www.w3.org/1999/xlink">
<defs>
<linearGradient gradientTransform="matrix(1 0 0 1 -101.5 -46)" gradientUnits="userSpaceOnUse" id="LinearGradient" x1="570.56" x2="570.56" y1="454" y2="63.07">
<stop offset="0" stop-color="#808080" stop-opacity="0.25"/>
<stop offset="0.54" stop-color="#808080" stop-opacity="0.12"/>
<stop offset="1" stop-color="#808080" stop-opacity="0.1"/>
</linearGradient>
</defs>
<g id="Ohne-Titel" vectornator:layerName="Ohne Titel">
<g opacity="0.2" vectornator:layerName="g">
<path d="M683.38 545C683.38 545 710.89 572.51 695.38 613.33C679.87 654.15 722 722.03 722 722.03L720.71 721.82C664.21 711.82 636.14 647.23 667.56 599.23C679.22 581.42 688.81 560.48 683.38 545Z" fill="#ffffff" fill-rule="nonzero" opacity="1" stroke="none" vectornator:layerName="path"/>
<path d="M683.38 545.5C683.38 545.5 710.89 573.01 695.38 613.83C679.87 654.65 722 722.53 722 722.53L720.71 722.32C664.21 712.32 636.14 647.73 667.56 599.73C679.22 581.87 688.81 560.94 683.38 545.5Z" fill="#000000" fill-rule="nonzero" opacity="0.1" stroke="none" vectornator:layerName="path"/>
<path d="M683.38 545C683.38 545 698.91 578.72 683.38 606.23C667.85 633.74 680.72 710.94 721.98 722.03" fill="none" opacity="1" stroke="#535461" stroke-linecap="butt" stroke-linejoin="miter" stroke-width="1" vectornator:layerName="path"/>
<path d="M634.39 656.3C634.39 656.3 665.78 651.3 668.64 679.43C671.5 707.56 729 711.43 729 711.43L727.92 712.15C680.44 743.32 635.06 732 641.92 690.62C644.45 675.27 644.24 659.81 634.39 656.3Z" fill="#ffffff" fill-rule="nonzero" opacity="1" stroke="none" vectornator:layerName="path"/>
<path d="M634.39 656.3C634.39 656.3 658.76 661.65 656.75 683.8C654.74 705.95 692.93 732.51 729 711.46" fill="none" opacity="1" stroke="#535461" stroke-linecap="butt" stroke-linejoin="miter" stroke-width="1" vectornator:layerName="path"/>
</g>
<g opacity="0.2" vectornator:layerName="g">
<path d="M357.1 501.68C357.1 501.68 379.96 524.54 367.1 558.45C354.24 592.36 389.22 648.77 389.22 648.77L388.15 648.59C341.21 640.3 317.88 586.59 343.98 546.73C353.64 531.9 361.61 514.51 357.1 501.68Z" fill="#ffffff" fill-rule="nonzero" opacity="1" stroke="none" vectornator:layerName="path"/>
<path d="M357.1 502.06C357.1 502.06 379.96 524.92 367.1 558.83C354.24 592.74 389.22 649.15 389.22 649.15L388.1 649C341.16 640.71 317.83 587 343.93 547.14C353.64 532.28 361.61 514.89 357.1 502.06Z" fill="#000000" fill-rule="nonzero" opacity="0.1" stroke="none" vectornator:layerName="path"/>
<path d="M357.1 501.68C357.1 501.68 370 529.68 357.1 552.55C344.2 575.42 354.89 639.55 389.17 648.77" fill="none" opacity="1" stroke="#535461" stroke-linecap="butt" stroke-linejoin="miter" stroke-width="1" vectornator:layerName="path"/>
<path d="M316.39 594.13C316.39 594.13 342.5 590 344.85 613.35C347.2 636.7 395 640 395 640L394.1 640.6C354.65 666.5 316.94 657.1 322.63 622.71C324.74 609.88 324.57 597 316.39 594.13Z" fill="#ffffff" fill-rule="nonzero" opacity="1" stroke="none" vectornator:layerName="path"/>
<path d="M316.39 594.13C316.39 594.13 336.63 598.57 334.97 616.98C333.31 635.39 365.03 657.46 394.97 639.98" fill="none" opacity="1" stroke="#535461" stroke-linecap="butt" stroke-linejoin="miter" stroke-width="1" vectornator:layerName="path"/>
</g>
<g opacity="0.2" vectornator:layerName="g">
<path d="M261.1 357.68C261.1 357.68 283.96 380.54 271.1 414.45C258.24 448.36 293.22 504.77 293.22 504.77L292.15 504.59C245.21 496.3 221.88 442.59 247.98 402.73C257.64 387.9 265.61 370.51 261.1 357.68Z" fill="#ffffff" fill-rule="nonzero" opacity="1" stroke="none" vectornator:layerName="path"/>
<path d="M261.1 358.06C261.1 358.06 283.96 380.92 271.1 414.83C258.24 448.74 293.22 505.15 293.22 505.15L292.1 505C245.16 496.71 221.83 443 247.93 403.14C257.64 388.28 265.61 370.89 261.1 358.06Z" fill="#000000" fill-rule="nonzero" opacity="0.1" stroke="none" vectornator:layerName="path"/>
<path d="M261.1 357.68C261.1 357.68 274 385.68 261.1 408.55C248.2 431.42 258.89 495.55 293.17 504.77" fill="none" opacity="1" stroke="#535461" stroke-linecap="butt" stroke-linejoin="miter" stroke-width="1" vectornator:layerName="path"/>
<path d="M220.39 450.13C220.39 450.13 246.5 446 248.85 469.35C251.2 492.7 299 496 299 496L298.1 496.6C258.65 522.5 220.94 513.1 226.63 478.71C228.74 465.88 228.57 453 220.39 450.13Z" fill="#ffffff" fill-rule="nonzero" opacity="1" stroke="none" vectornator:layerName="path"/>
<path d="M220.39 450.13C220.39 450.13 240.63 454.57 238.97 472.98C237.31 491.39 269.03 513.46 298.97 495.98" fill="none" opacity="1" stroke="#535461" stroke-linecap="butt" stroke-linejoin="miter" stroke-width="1" vectornator:layerName="path"/>
</g>
<path d="M14.76 592.38L14.76 578.75L294.05 500.42L344 494.74L344 507.23L65.85 607.13L14.76 592.38Z" fill="#dfe5ee" fill-rule="nonzero" opacity="1" stroke="none" vectornator:layerName="polygon"/>
<path d="M14.76 592.38L14.76 578.75L294.05 500.42L344 494.74L344 507.23L65.85 607.13L14.76 592.38Z" fill="#000000" fill-rule="nonzero" opacity="0.05" stroke="none" vectornator:layerName="polygon"/>
<path d="M14.76 578.75L294.05 486.79L342.87 494.74L65.85 593.51L14.76 578.75Z" fill="#dfe5ee" fill-rule="nonzero" opacity="1" stroke="none" vectornator:layerName="polygon"/>
<path d="M57.9 370.99L76.07 370.99L76.07 370.99L76.07 582.16L76.07 582.16L57.9 582.16L57.9 582.16L57.9 370.99L57.9 370.99Z" fill="#dfe5ee" fill-rule="nonzero" opacity="1" stroke="none" vectornator:layerName="rect"/>
<path d="M275.88 322.17L294.05 322.17L294.05 322.17L294.05 507.23L294.05 507.23L275.88 507.23L275.88 507.23L275.88 322.17L275.88 322.17Z" fill="#dfe5ee" fill-rule="nonzero" opacity="1" stroke="none" vectornator:layerName="rect"/>
<path d="M339.46 264.27L339.46 321.04L112.67 371.7L85.84 377.7L19.3 392.56L0 386.88L0 321.04L102.91 301.42L128.52 296.54L315.62 260.87L339.46 264.27Z" fill="#dfe5ee" fill-rule="nonzero" opacity="1" stroke="none" vectornator:layerName="polygon"/>
<path d="M339.46 264.27L339.46 321.04L112.67 371.7L85.84 377.7L19.3 392.56L0 386.88L0 321.04L102.91 301.42L128.52 296.54L315.62 260.87L339.46 264.27Z" fill="#000000" fill-rule="nonzero" opacity="0.05" stroke="none" vectornator:layerName="polygon"/>
<path d="M76.07 370.99L76.07 382.15L57.9 386.21L57.9 370.99L76.07 370.99Z" fill="#000000" fill-rule="nonzero" opacity="0.05" stroke="none" vectornator:layerName="polygon"/>
<path d="M294.05 322.17L294.05 333.46L275.88 337.51L275.88 322.17L294.05 322.17Z" fill="#000000" fill-rule="nonzero" opacity="0.05" stroke="none" vectornator:layerName="polygon"/>
<path d="M339.46 264.27L339.46 321.04L247.38 341.61L220.6 347.59L112.67 371.7L85.84 377.7L19.3 392.56L20.44 327.85L112.91 309.42L138.78 304.27L138.79 304.27L244.5 283.2L270.32 278.05L339.46 264.27Z" fill="#dfe5ee" fill-rule="nonzero" opacity="1" stroke="none" vectornator:layerName="polygon"/>
<path d="M138.79 304.27L112.67 371.7L85.84 377.7L112.91 309.42L102.91 301.42L128.52 296.54L138.78 304.27L138.79 304.27Z" fill="#ffffff" fill-rule="nonzero" opacity="1" stroke="none" vectornator:layerName="polygon"/>
<path d="M271.62 279.03L247.38 341.61L220.6 347.59L245.74 284.18L244.5 283.2L235.74 276.18L261.35 271.3L270.32 278.05L271.61 279.03L271.62 279.03Z" fill="#ffffff" fill-rule="nonzero" opacity="1" stroke="none" vectornator:layerName="polygon"/>
<path d="M61.88 578.47L80.04 574.21L80.04 578.47L61.88 582.73L61.88 578.47Z" fill="#000000" fill-rule="nonzero" opacity="0.05" stroke="none" vectornator:layerName="polygon"/>
<path d="M278.72 503.54L296.88 499.28L296.88 503.54L278.72 507.8L278.72 503.54Z" fill="#000000" fill-rule="nonzero" opacity="0.05" stroke="none" vectornator:layerName="polygon"/>
<path d="M659.73 348.51C630.78 363.76 600.81 346.51 600.81 346.51C600.34 347.391 599.802 348.233 599.2 349.03C598.83 348.75 598.45 348.46 598.07 348.15C585.63 337.98 571.86 313.97 571.86 313.97L545.03 263.66C541.743 257.614 539.265 251.162 537.66 244.47C533.24 225.29 519.13 224.47 519.13 224.47L502.6 224.47C494.6 224.47 483.04 226.15 471.6 228.47C471.904 228.158 472.103 227.76 472.17 227.33L471.62 227.44L477.76 221.44C477.76 221.44 495.33 214.32 497.4 199.07L506.7 189.92C506.7 189.92 507 189.12 507.42 187.71L510.51 183.82C523.97 166.97 524.94 166.69 524.94 166.69L565.75 142.54C565.75 142.54 580.4 140.46 574.29 99.49C568.18 58.52 572.29 53.49 572.29 53.49C572.29 53.49 583.39 12.44 562.11 17.55C540.83 22.66 550.45 57.75 550.45 57.75L551.93 65.5C553.785 75.2057 553.683 85.1842 551.63 94.85C549.42 105.3 546.95 118.21 547.57 121.29C548.66 126.66 536.37 133.46 536.37 133.46L529.42 137.52C522.062 141.815 513.396 143.293 505.03 141.68L504.66 141.12L500.5 138C500.376 138.427 500.276 138.861 500.2 139.3L498.5 138L498.5 138.1C498.5 137.74 498.5 137.4 498.58 137.02C499.068 133.174 499.97 129.392 501.27 125.74C501.38 125.4 501.52 125.04 501.64 124.74C517.772 123.762 530.388 110.451 530.5 94.29C530.501 91.0823 529.988 87.8952 528.98 84.85C529.767 84.9963 530.573 84.9963 531.36 84.85C535.1 84.25 539.07 82.33 541.01 79.02C543.106 75.3051 542.796 70.7 540.22 67.3C539.743 66.6919 539.207 66.1325 538.62 65.63C535.07 61.63 529.13 60.63 524.41 57.94C519.92 55.41 516.51 51.37 512.33 48.36C504.43 42.65 494.33 40.93 484.69 39.36C480.55 38.69 476.34 38.02 472.18 38.57C466.92 39.27 462.08 41.9 457.96 45.19C456.499 46.2398 455.276 47.5857 454.37 49.14C452.84 52.14 453.51 55.66 453.24 58.98C452.58 67.06 446.24 73.64 439.24 77.93C434.94 80.56 430.24 82.66 426.63 86.19C423.02 89.72 420.89 95.29 423.14 99.75C424.33 102.11 426.68 104.08 426.7 106.75C426.622 107.924 426.28 109.066 425.7 110.09C423.298 115.105 420.054 119.671 416.11 123.59C401.51 120.07 385.75 127.81 385.75 127.81L338.2 129.81C338.2 129.81 324.76 123.71 307.2 161.33C289.64 198.95 283.42 200.99 283.42 200.99C283.42 200.99 251.42 229.46 272.05 236.58C292.68 243.7 304.05 209.12 304.05 209.12L315.5 187.84C315.5 187.84 341.34 163.43 343.41 158.35C345.48 153.27 357.88 153.27 357.88 153.27L408.29 155.27C408.356 155.677 408.396 156.088 408.41 156.5C408.53 162.14 403.24 166.5 397.92 168.59C394.56 169.93 390.72 170.94 388.67 173.88C386.62 176.82 387.11 181.09 389.17 184.09C389.798 184.986 390.534 185.802 391.36 186.52C393.522 188.749 396.162 190.459 399.08 191.52C401.5 192.484 404.018 193.182 406.59 193.6C405.544 197.916 404.122 202.132 402.34 206.2L404.34 207.06L403.68 208.82C400.86 216.31 395.05 231.09 389.91 240.03C389.86 240.03 380.57 247.91 373.36 255.03C367.85 260.45 354.57 312.63 393.43 313.57L402.3 320.11L402.48 320.11C410.37 331.25 436.42 349.55 436.42 349.55L390.35 352.27C388.052 352.41 385.765 352.687 383.5 353.1C382.747 353.233 381.993 353.383 381.24 353.55C373.12 355.33 364.13 354.7 359.31 354.13C356.12 348.13 341.31 350.57 341.31 350.57C341.31 350.57 339.24 381.08 342.31 398.36C345.38 415.64 356.78 404.46 356.78 404.46C354.71 389.21 371.78 377.99 371.78 377.99L371.78 377.99C373.95 376.9 376.52 375.58 379.54 373.99C389.12 368.85 434.69 376.71 448.78 379.31C451.882 379.888 455.035 380.156 458.19 380.11C498.58 379.45 488.09 359.75 488.09 359.75L479.96 343.75C478.626 341.09 477.438 338.359 476.4 335.57C469.22 316.57 458.06 306.11 449.51 300.51C449.97 299.93 450.43 299.35 450.88 298.74C450.88 298.74 450.2 298.58 449.17 298.27C456.39 294.58 461.17 291.63 461.17 291.63C461.17 291.63 508.72 263.16 506.66 270.28C504.6 277.4 517 304.85 539.74 324.17C540.4 324.73 541.04 325.3 541.68 325.88L542.3 326.45L543.57 327.65L544.26 328.32L545.44 329.5L546.1 330.18L547.35 331.52L547.85 332.06C548.417 332.687 548.977 333.32 549.53 333.96L549.89 334.39C550.317 334.897 550.74 335.403 551.16 335.91L551.73 336.62L552.73 337.9L553.31 338.65L554.31 339.96L554.83 340.65L555.99 342.26L556.27 342.64C556.743 343.307 557.207 343.973 557.66 344.64L558 345.15L559 346.66L559.42 347.31L560.31 348.71L560.7 349.33L561.63 350.86L561.9 351.3C562.707 352.633 563.473 353.967 564.2 355.3L564.32 355.52L565.27 357.24L565.42 357.52L566.33 359.24L566.39 359.36C568.953 364.254 571.247 369.285 573.26 374.43C572.098 374.71 570.919 374.91 569.73 375.03C563.53 402.49 580.07 402.49 580.07 402.49C580.07 402.49 641.07 393.34 663.81 369.95C686.55 346.56 659.73 348.51 659.73 348.51Z" fill="url(#LinearGradient)" fill-rule="nonzero" opacity="1" stroke="none" vectornator:layerName="path"/>
<path d="M438.5 296.5C438.5 296.5 463.64 303.02 476.18 336.72C477.187 339.446 478.338 342.117 479.63 344.72L487.5 360.5C487.5 360.5 497.65 379.87 458.58 380.5C455.528 380.544 452.479 380.279 449.48 379.71C435.85 377.16 391.77 369.43 382.48 374.48C377.288 377.421 371.948 380.091 366.48 382.48L355.48 370.48L359.48 354.48C359.48 354.48 372.69 356.96 384.1 354.41C386.998 353.756 389.944 353.335 392.91 353.15L437.5 350.5C437.5 350.5 402.5 325.5 402.5 316.5C402.5 307.5 438.5 296.5 438.5 296.5Z" fill="#f8bdc5" fill-rule="nonzero" opacity="1" stroke="none" vectornator:layerName="path"/>
<path d="M363.5 357.5C363.5 357.5 352.5 375.44 374.99 378.5C374.99 378.5 358.5 389.5 360.5 404.5C360.5 404.5 349.5 415.5 346.5 398.5C343.5 381.5 345.5 351.5 345.5 351.5C345.5 351.5 363.5 348.5 363.5 357.5Z" fill="#000000" fill-rule="nonzero" opacity="0.05" stroke="none" vectornator:layerName="path"/>
<path d="M438.5 296.5C438.5 296.5 463.64 303.02 476.18 336.72C477.187 339.446 478.338 342.117 479.63 344.72L487.5 360.5C487.5 360.5 497.65 379.87 458.58 380.5C455.528 380.544 452.479 380.279 449.48 379.71C435.85 377.16 391.77 369.43 382.48 374.48C377.288 377.421 371.948 380.091 366.48 382.48L355.48 370.48L359.48 354.48C359.48 354.48 372.69 356.96 384.1 354.41C386.998 353.756 389.944 353.335 392.91 353.15L437.5 350.5C437.5 350.5 402.5 325.5 402.5 316.5C402.5 307.5 438.5 296.5 438.5 296.5Z" fill="#000000" fill-rule="nonzero" opacity="0.05" stroke="none" vectornator:layerName="path"/>
<path d="M360.5 372.5L364.5 356.5C364.5 356.5 377.71 358.98 389.12 356.43C392.018 355.776 394.964 355.355 397.93 355.17L442.5 352.5C442.5 352.5 407.5 327.5 407.5 318.5C407.5 309.5 443.5 298.5 443.5 298.5L443.77 298.58C442.077 297.736 440.313 297.04 438.5 296.5C438.5 296.5 402.5 307.5 402.5 316.5C402.5 325.5 437.5 350.5 437.5 350.5L392.94 353.17C389.974 353.355 387.028 353.776 384.13 354.43C372.72 356.98 359.51 354.5 359.51 354.5L355.51 370.5L366.51 382.5C366.51 382.5 367.25 382.2 368.77 381.5L360.5 372.5Z" fill="#000000" fill-rule="nonzero" opacity="0.05" stroke="none" vectornator:layerName="path"/>
<path d="M363.5 357.5C363.5 357.5 352.5 375.44 374.99 378.5C374.99 378.5 358.5 389.5 360.5 404.5C360.5 404.5 349.5 415.5 346.5 398.5C343.5 381.5 345.5 351.5 345.5 351.5C345.5 351.5 363.5 348.5 363.5 357.5Z" fill="#ffd97b" fill-rule="nonzero" opacity="1" stroke="none" vectornator:layerName="path"/>
<path d="M333.76 647.38L333.76 633.75L613.05 555.42L663 549.74L663 562.23L384.85 662.13L333.76 647.38Z" fill="#dfe5ee" fill-rule="nonzero" opacity="1" stroke="none" vectornator:layerName="polygon"/>
<path d="M333.76 647.38L333.76 633.75L613.05 555.42L663 549.74L663 562.23L384.85 662.13L333.76 647.38Z" fill="#000000" fill-rule="nonzero" opacity="0.05" stroke="none" vectornator:layerName="polygon"/>
<path d="M333.76 633.75L613.05 541.79L661.87 549.74L384.85 648.51L333.76 633.75Z" fill="#dfe5ee" fill-rule="nonzero" opacity="1" stroke="none" vectornator:layerName="polygon"/>
<path d="M376.9 425.99L395.07 425.99L395.07 425.99L395.07 637.16L395.07 637.16L376.9 637.16L376.9 637.16L376.9 425.99L376.9 425.99Z" fill="#dfe5ee" fill-rule="nonzero" opacity="1" stroke="none" vectornator:layerName="rect"/>
<path d="M594.88 377.17L613.05 377.17L613.05 377.17L613.05 562.23L613.05 562.23L594.88 562.23L594.88 562.23L594.88 377.17L594.88 377.17Z" fill="#dfe5ee" fill-rule="nonzero" opacity="1" stroke="none" vectornator:layerName="rect"/>
<path d="M658.46 319.27L658.46 376.04L431.67 426.7L404.84 432.7L338.3 447.56L319 441.88L319 376.04L421.9 356.42L447.52 351.54L634.62 315.87L658.46 319.27Z" fill="#dfe5ee" fill-rule="nonzero" opacity="1" stroke="none" vectornator:layerName="polygon"/>
<path d="M658.46 319.27L658.46 376.04L431.67 426.7L404.84 432.7L338.3 447.56L319 441.88L319 376.04L421.9 356.42L447.52 351.54L634.62 315.87L658.46 319.27Z" fill="#000000" fill-rule="nonzero" opacity="0.05" stroke="none" vectornator:layerName="polygon"/>
<path d="M395.07 425.99L395.07 437.15L376.9 441.21L376.9 425.99L395.07 425.99Z" fill="#000000" fill-rule="nonzero" opacity="0.05" stroke="none" vectornator:layerName="polygon"/>
<path d="M613.05 377.17L613.05 388.46L594.88 392.51L594.88 377.17L613.05 377.17Z" fill="#000000" fill-rule="nonzero" opacity="0.05" stroke="none" vectornator:layerName="polygon"/>
<path d="M658.46 319.27L658.46 376.04L566.38 396.61L539.6 402.59L431.67 426.7L404.84 432.7L338.3 447.56L339.44 382.85L431.91 364.42L457.78 359.27L457.79 359.27L563.5 338.2L589.32 333.05L658.46 319.27Z" fill="#dfe5ee" fill-rule="nonzero" opacity="1" stroke="none" vectornator:layerName="polygon"/>
<path d="M457.79 359.27L431.67 426.7L404.84 432.7L431.91 364.42L421.9 356.42L447.52 351.54L457.78 359.27L457.79 359.27Z" fill="#ffffff" fill-rule="nonzero" opacity="1" stroke="none" vectornator:layerName="polygon"/>
<path d="M590.62 334.03L566.38 396.61L539.6 402.59L564.74 339.18L563.5 338.2L554.74 331.18L580.35 326.3L589.32 333.05L590.61 334.03L590.62 334.03Z" fill="#ffffff" fill-rule="nonzero" opacity="1" stroke="none" vectornator:layerName="polygon"/>
<path d="M380.88 633.47L399.04 629.21L399.04 633.47L380.88 637.73L380.88 633.47Z" fill="#000000" fill-rule="nonzero" opacity="0.05" stroke="none" vectornator:layerName="polygon"/>
<path d="M597.72 558.54L615.88 554.28L615.88 558.54L597.72 562.79L597.72 558.54Z" fill="#000000" fill-rule="nonzero" opacity="0.05" stroke="none" vectornator:layerName="polygon"/>
<path d="M562.63 146.9L523.15 170.65C523.15 170.65 522.21 170.93 509.15 187.5L504.46 193.5C494.54 206.25 473.92 210.5 473.92 210.5L460.84 190.38L458.08 165.94L460.98 156.07L463.28 148.25L483.4 151.13L491.5 155.5L501.5 145.5C502.28 145.71 503.07 145.9 503.86 146.05C511.954 147.646 520.352 146.204 527.45 142L534.17 138C534.17 138 546.05 131.31 545 126C544.4 123 546.79 110.28 548.93 100C550.916 90.4918 551.014 80.6862 549.22 71.14L547.79 63.52C547.79 63.52 538.5 29 559.07 24C579.64 19 568.92 59.34 568.92 59.34C568.92 59.34 564.98 64.28 570.92 104.57C576.86 144.86 562.63 146.9 562.63 146.9Z" fill="#f8bdc5" fill-rule="nonzero" opacity="1" stroke="none" vectornator:layerName="path"/>
<path d="M497.55 141.54C496.43 152.12 501.5 153.54 501.5 153.54L504.5 165.54L504.5 178.54L495.5 193.54L473.5 193.54L454.5 184.54L454.5 142.54L451.5 132.54C453.179 132.432 454.849 132.215 456.5 131.89C466.15 129.96 471.62 124.6 474.7 118.78C479.5 109.67 478.5 99.5 478.5 99.5C478.5 99.5 518.5 88.5 504.5 119.5C502.64 123.63 501.22 127.26 500.15 130.5C498.896 134.078 498.025 137.779 497.55 141.54Z" fill="#f8bdc5" fill-rule="nonzero" opacity="1" stroke="none" vectornator:layerName="path"/>
<path d="M472.09 229.33C472.025 229.773 471.818 230.184 471.5 230.5C470.98 231.104 470.546 231.777 470.21 232.5C465.53 241.33 456.5 272.5 456.5 272.5L407.5 254.5L406.79 254.32L387.5 249.5C392.97 245.59 402.11 222.14 405.83 212.08C406.83 209.27 407.5 207.5 407.5 207.5L459.5 212.5C459.5 212.5 472.98 224.3 472.09 229.33Z" fill="#f8bdc5" fill-rule="nonzero" opacity="1" stroke="none" vectornator:layerName="path"/>
<path d="M451.5 129.5C451.5 129.5 436.5 135.5 421.5 129.5C406.5 123.5 388.5 132.5 388.5 132.5L342.5 134.5C342.5 134.5 329.5 128.5 312.5 165.5C295.5 202.5 289.5 204.5 289.5 204.5C289.5 204.5 258.5 232.5 278.5 239.5C298.5 246.5 309.5 212.5 309.5 212.5L320.5 191.5C320.5 191.5 345.5 167.5 347.5 162.5C349.5 157.5 361.5 157.5 361.5 157.5L411.5 159.5L411.19 174.12L426.5 187.5L440.5 175.5L451.5 153.5L451.5 129.5Z" fill="#f8bdc5" fill-rule="nonzero" opacity="1" stroke="none" vectornator:layerName="path"/>
<path d="M504.5 119.5C502.64 123.63 501.22 127.26 500.15 130.5C499.61 130.5 499.05 130.5 498.5 130.5C489.163 130.51 480.357 126.16 474.69 118.74C479.5 109.67 478.5 99.5 478.5 99.5C478.5 99.5 518.5 88.5 504.5 119.5Z" fill="#000000" fill-rule="nonzero" opacity="0.1" stroke="none" vectornator:layerName="path"/>
<path d="M468.5 99.5C468.5 82.9315 481.931 69.5 498.5 69.5C515.069 69.5 528.5 82.9315 528.5 99.5C528.5 116.069 515.069 129.5 498.5 129.5C481.931 129.5 468.5 116.069 468.5 99.5Z" fill="#f8bdc5" fill-rule="nonzero" opacity="1" stroke="none" vectornator:layerName="circle"/>
<path d="M472.09 229.33C472.025 229.773 471.818 230.184 471.5 230.5C470.98 231.104 470.546 231.777 470.21 232.5C452.42 231.72 413.49 215.39 405.83 212.12C406.83 209.31 407.5 207.54 407.5 207.54L459.5 212.54C459.5 212.54 472.98 224.3 472.09 229.33Z" fill="#000000" fill-rule="nonzero" opacity="0.1" stroke="none" vectornator:layerName="path"/>
<path d="M509.19 187.5L504.5 193.5C494.58 206.25 473.96 210.5 473.96 210.5L460.88 190.38L458.12 165.94L459 142C461.79 155 469.59 182.12 481.5 184.5C501.41 188.5 499.98 159.97 499 148C498.851 146.152 499.02 144.291 499.5 142.5L503.5 145.5L503.86 146.05C513.39 160.85 511.25 178.47 509.19 187.5Z" fill="#000000" fill-rule="nonzero" opacity="0.1" stroke="none" vectornator:layerName="path"/>
<path d="M456.5 127.5L446.5 127.5C446.5 127.5 456.5 191.5 409.5 173.5C409.5 173.5 413.5 188.5 404.5 209.5C404.5 209.5 452.5 230.5 471.5 230.5L477.5 224.5C477.5 224.5 494.5 217.5 496.5 202.5L505.5 193.5C505.5 193.5 515.5 166.5 501.5 145.5L497.5 142.5C497.019 144.291 496.85 146.152 497 148C498 160 499.41 188.48 479.5 184.5C454.5 179.5 456.5 127.5 456.5 127.5Z" fill="#eb6576" fill-rule="nonzero" opacity="1" stroke="none" vectornator:layerName="path"/>
<path d="M388.5 309.5L404.5 321.5C404.5 321.5 430.5 329.5 451.5 300.5C451.5 300.5 438.5 297.5 440.5 290.5C442.5 283.5 388.5 309.5 388.5 309.5Z" fill="#5e52ad" fill-rule="nonzero" opacity="1" stroke="none" vectornator:layerName="path"/>
<path d="M388.5 309.5L404.5 321.5C404.5 321.5 430.5 329.5 451.5 300.5C451.5 300.5 438.5 297.5 440.5 290.5C442.5 283.5 388.5 309.5 388.5 309.5Z" fill="#000000" fill-rule="nonzero" opacity="0.05" stroke="none" vectornator:layerName="path"/>
<path d="M472.09 230.33C472.025 230.773 471.818 231.184 471.5 231.5C467.5 235.5 456.5 273.5 456.5 273.5L407.5 255.5L406.79 255.32C410.587 252.921 414.605 250.892 418.79 249.26C422.2 247.94 425.63 246.54 428.6 245.2C431.007 244.17 433.319 242.932 435.51 241.5C439.7 238.5 455.79 233.7 472.09 230.33Z" fill="#000000" fill-rule="nonzero" opacity="0.1" stroke="none" vectornator:layerName="path"/>
<path d="M585.5 372.5L570.5 376.5C570.5 376.5 570.16 375.5 569.5 373.76C566.3 365.62 555.64 341.15 537.5 325.5C515.5 306.5 503.5 279.5 505.5 272.5C507.5 265.5 461.5 293.5 461.5 293.5C461.5 293.5 428.15 314.25 406.11 314.28C402.817 314.373 399.541 313.767 396.5 312.5C388 308.67 384.56 301.96 383.41 295.5C382.033 287.232 384.212 278.766 389.41 272.19C397.03 262.339 407.196 254.756 418.81 250.26C422.22 248.94 425.65 247.54 428.62 246.2C431.027 245.17 433.339 243.932 435.53 242.5C442.53 237.5 482.53 227.5 501.53 227.5L517.53 227.5C517.53 227.5 531.17 228.3 535.45 247.16C536.993 253.72 539.379 260.053 542.55 266L568.5 315.5C568.5 315.5 581.82 339.11 593.85 349.11C597.28 351.97 600.61 353.72 603.5 353.5C616.5 352.5 585.5 372.5 585.5 372.5Z" fill="#f8bdc5" fill-rule="nonzero" opacity="1" stroke="none" vectornator:layerName="path"/>
<path d="M538.66 84.52C540.685 80.8627 540.388 76.3595 537.9 73C534.54 68.63 528.47 67.63 523.68 64.89C519.33 62.4 516.04 58.43 512 55.47C504.36 49.86 494.62 48.16 485.27 46.63C481.27 45.97 477.19 45.31 473.17 45.86C468.08 46.55 463.4 49.14 459.41 52.37C457.994 53.4059 456.812 54.7278 455.94 56.25C454.46 59.17 455.11 62.67 454.85 65.93C454.21 73.88 448.07 80.35 441.3 84.56C437.14 87.15 432.56 89.21 429.1 92.68C425.64 96.15 423.55 101.63 425.73 106.01C426.89 108.33 429.16 110.27 429.17 112.87C429.104 114.023 428.783 115.146 428.23 116.16C425.862 121.197 422.634 125.782 418.69 129.71C415.15 133.23 410.92 136.39 409.08 141.04C407.31 145.51 408.08 150.61 409.71 155.14C410.47 157.3 411.42 159.46 411.46 161.74C411.57 167.29 406.46 171.55 401.31 173.63C398.06 174.94 394.31 175.94 392.36 178.83C390.41 181.72 390.85 185.92 392.84 188.83C394.83 191.74 398.04 193.69 401.34 195.02C407.466 197.6 414.257 198.154 420.72 196.6C427.203 194.98 432.703 190.704 435.87 184.82C438.87 178.98 439.07 171.82 443.23 166.72C450.56 157.81 466.02 160.06 473.67 151.41C479.81 144.46 478.14 133.93 477.67 124.67C477.398 119.511 477.613 114.339 478.31 109.22C478.81 105.58 479.73 101.67 482.59 99.37C484.9 97.51 488.02 97.09 490.96 96.73C497.1 95.96 504.17 94.47 506.96 88.94C508.12 86.64 508.47 83.74 510.56 82.24C513.45 80.16 517.5 82.24 520.02 84.74C522.8 87.51 525.13 90.92 529.36 90.23C532.95 89.67 536.79 87.78 538.66 84.52Z" fill="#000000" fill-rule="nonzero" opacity="0.1" stroke="none" vectornator:layerName="path"/>
<path d="M537.58 83.44C539.603 79.7808 539.302 75.2775 536.81 71.92C533.45 67.55 527.38 66.55 522.59 63.81C518.24 61.32 514.95 57.35 510.91 54.39C503.27 48.78 493.53 47.08 484.18 45.55C480.18 44.89 476.1 44.23 472.08 44.78C466.99 45.47 462.31 48.06 458.32 51.29C456.904 52.3259 455.722 53.6478 454.85 55.17C453.37 58.09 454.02 61.59 453.76 64.85C453.12 72.8 446.98 79.27 440.21 83.48C436.05 86.07 431.47 88.13 428.01 91.6C424.55 95.07 422.46 100.55 424.64 104.93C425.8 107.25 428.07 109.19 428.08 111.79C428.014 112.943 427.693 114.066 427.14 115.08C424.772 120.117 421.544 124.702 417.6 128.63C414.06 132.15 409.83 135.31 407.99 139.96C406.22 144.43 406.99 149.53 408.62 154.06C409.38 156.22 410.33 158.38 410.37 160.66C410.48 166.21 405.37 170.47 400.22 172.55C396.97 173.86 393.22 174.86 391.27 177.75C389.32 180.64 389.76 184.84 391.75 187.75C393.74 190.66 396.95 192.61 400.25 193.94C406.376 196.52 413.167 197.074 419.63 195.52C426.113 193.9 431.613 189.624 434.78 183.74C437.78 177.9 437.98 170.74 442.14 165.64C449.47 156.73 464.93 158.98 472.58 150.33C478.72 143.38 477.05 132.85 476.58 123.59C476.308 118.431 476.523 113.259 477.22 108.14C477.72 104.5 478.64 100.59 481.5 98.29C483.81 96.43 486.93 96.01 489.87 95.65C496.01 94.88 503.08 93.39 505.87 87.86C507.03 85.56 507.38 82.66 509.47 81.16C512.36 79.08 516.41 81.16 518.93 83.66C521.71 86.43 524.04 89.84 528.27 89.15C531.86 88.58 535.71 86.69 537.58 83.44Z" fill="#6e464e" fill-rule="nonzero" opacity="1" stroke="none" vectornator:layerName="path"/>
<path d="M434 202C434 202 445 211 459 210" fill="#000000" fill-rule="nonzero" opacity="0.1" stroke="none" vectornator:layerName="path"/>
<path d="M605.92 353.68C600.18 359.32 587.5 367.5 587.5 367.5L572.5 371.5C572.5 371.5 561.5 339.5 539.5 320.5C517.5 301.5 505.5 274.5 507.5 267.5C509.5 260.5 463.5 288.5 463.5 288.5C463.5 288.5 430.15 309.25 408.11 309.28C404.817 309.373 401.541 308.767 398.5 307.5C390 303.67 386.56 296.96 385.41 290.5C384.634 286.061 384.915 281.501 386.23 277.19C383.327 282.825 382.337 289.252 383.41 295.5C384.56 301.96 388 308.67 396.5 312.5C399.541 313.767 402.817 314.373 406.11 314.28C428.11 314.28 461.5 293.5 461.5 293.5C461.5 293.5 507.5 265.5 505.5 272.5C503.5 279.5 515.5 306.5 537.5 325.5C559.5 344.5 570.5 376.5 570.5 376.5L585.5 372.5C585.5 372.5 611.39 355.79 605.92 353.68Z" fill="#000000" fill-rule="nonzero" opacity="0.05" stroke="none" vectornator:layerName="path"/>
<path d="M429.5 246.5L427.8 247.29C415.391 252.989 405.225 262.648 398.9 274.75C385.5 300.83 403.21 312.58 406.11 314.28C402.817 314.373 399.541 313.767 396.5 312.5C388 308.67 384.56 301.96 383.41 295.5C382.033 287.232 384.212 278.766 389.41 272.19C397.03 262.339 407.196 254.756 418.81 250.26C422.22 248.94 425.65 247.54 428.62 246.2L429.5 246.5Z" fill="#000000" fill-rule="nonzero" opacity="0.1" stroke="none" vectornator:layerName="path"/>
<path d="M427.5 246.5C427.5 246.5 406.5 239.04 392.5 242.77C392.5 242.77 383.5 250.5 376.5 257.5C370.8 263.2 356.5 321.5 404.5 314.5C404.5 314.5 382.34 303.08 396.9 274.75C403.225 262.647 413.39 252.988 425.8 247.29L427.5 246.5Z" fill="#5e52ad" fill-rule="nonzero" opacity="1" stroke="none" vectornator:layerName="path"/>
<path d="M585.5 372.5L570.5 376.5C570.5 376.5 570.16 375.5 569.5 373.76C572.99 372.84 577.5 370.76 577.5 366.5C577.5 366.5 588.95 355.81 593.85 349.11C597.28 351.97 600.61 353.72 603.5 353.5C616.5 352.5 585.5 372.5 585.5 372.5Z" fill="#000000" fill-rule="nonzero" opacity="0.1" stroke="none" vectornator:layerName="path"/>
<path d="M578.5 367.5C578.5 367.5 593.5 353.5 596.5 347.5C596.5 347.5 625.5 364.5 653.5 349.5C653.5 349.5 679.5 347.5 657.5 370.5C635.5 393.5 576.5 402.5 576.5 402.5C576.5 402.5 560.5 402.5 566.5 375.5C566.5 375.5 578.5 374.5 578.5 367.5Z" fill="#ffd97b" fill-rule="nonzero" opacity="1" stroke="none" vectornator:layerName="path"/>
<path d="M667.76 717.38L667.76 703.75L947.05 625.42L997 619.74L997 632.23L718.85 732.13L667.76 717.38Z" fill="#dfe5ee" fill-rule="nonzero" opacity="1" stroke="none" vectornator:layerName="polygon"/>
<path d="M667.76 717.38L667.76 703.75L947.05 625.42L997 619.74L997 632.23L718.85 732.13L667.76 717.38Z" fill="#000000" fill-rule="nonzero" opacity="0.05" stroke="none" vectornator:layerName="polygon"/>
<path d="M667.76 703.75L947.05 611.79L995.87 619.74L718.85 718.51L667.76 703.75Z" fill="#dfe5ee" fill-rule="nonzero" opacity="1" stroke="none" vectornator:layerName="polygon"/>
<path d="M710.9 495.99L729.07 495.99L729.07 495.99L729.07 707.16L729.07 707.16L710.9 707.16L710.9 707.16L710.9 495.99L710.9 495.99Z" fill="#dfe5ee" fill-rule="nonzero" opacity="1" stroke="none" vectornator:layerName="rect"/>
<path d="M928.88 447.17L947.05 447.17L947.05 447.17L947.05 632.23L947.05 632.23L928.88 632.23L928.88 632.23L928.88 447.17L928.88 447.17Z" fill="#dfe5ee" fill-rule="nonzero" opacity="1" stroke="none" vectornator:layerName="rect"/>
<path d="M992.46 389.27L992.46 446.04L765.67 496.7L738.84 502.7L672.3 517.56L653 511.88L653 446.04L755.9 426.42L781.52 421.54L968.62 385.87L992.46 389.27Z" fill="#dfe5ee" fill-rule="nonzero" opacity="1" stroke="none" vectornator:layerName="polygon"/>
<path d="M992.46 389.27L992.46 446.04L765.67 496.7L738.84 502.7L672.3 517.56L653 511.88L653 446.04L755.9 426.42L781.52 421.54L968.62 385.87L992.46 389.27Z" fill="#000000" fill-rule="nonzero" opacity="0.05" stroke="none" vectornator:layerName="polygon"/>
<path d="M729.07 495.99L729.07 507.15L710.9 511.21L710.9 495.99L729.07 495.99Z" fill="#000000" fill-rule="nonzero" opacity="0.05" stroke="none" vectornator:layerName="polygon"/>
<path d="M947.05 447.17L947.05 458.46L928.88 462.51L928.88 447.17L947.05 447.17Z" fill="#000000" fill-rule="nonzero" opacity="0.05" stroke="none" vectornator:layerName="polygon"/>
<path d="M992.46 389.27L992.46 446.04L900.38 466.61L873.6 472.59L765.67 496.7L738.84 502.7L672.3 517.56L673.44 452.85L765.91 434.42L791.78 429.27L791.79 429.27L897.5 408.2L923.32 403.05L992.46 389.27Z" fill="#dfe5ee" fill-rule="nonzero" opacity="1" stroke="none" vectornator:layerName="polygon"/>
<path d="M791.79 429.27L765.67 496.7L738.84 502.7L765.91 434.42L755.9 426.42L781.52 421.54L791.78 429.27L791.79 429.27Z" fill="#ffffff" fill-rule="nonzero" opacity="1" stroke="none" vectornator:layerName="polygon"/>
<path d="M924.62 404.03L900.38 466.61L873.6 472.59L898.74 409.18L897.5 408.2L888.74 401.18L914.35 396.3L923.32 403.05L924.61 404.03L924.62 404.03Z" fill="#ffffff" fill-rule="nonzero" opacity="1" stroke="none" vectornator:layerName="polygon"/>
<path d="M714.88 703.47L733.04 699.21L733.04 703.47L714.88 707.73L714.88 703.47Z" fill="#000000" fill-rule="nonzero" opacity="0.05" stroke="none" vectornator:layerName="polygon"/>
<path d="M931.72 628.54L949.88 624.28L949.88 628.54L931.72 632.79L931.72 628.54Z" fill="#000000" fill-rule="nonzero" opacity="0.05" stroke="none" vectornator:layerName="polygon"/>
</g>
</svg>
